<svg width="20" height="20" viewBox="0 0 20 20" fill="none" xmlns="http://www.w3.org/2000/svg">
<path d="M19.3535 7.04257L13.3579 6.1301L10.6778 0.440169C10.6046 0.284382 10.4841 0.158269 10.3354 0.0816118C9.96225 -0.111267 9.50886 0.0494653 9.32231 0.440169L6.64212 6.1301L0.646515 7.04257C0.481217 7.0673 0.330087 7.1489 0.214378 7.27254C0.074493 7.4231 -0.00259024 7.62566 6.64639e-05 7.8357C0.00272317 8.04575 0.0849025 8.24609 0.228547 8.39272L4.56644 12.8215L3.5416 19.0753C3.51756 19.2207 3.53294 19.3704 3.58597 19.5071C3.63901 19.6439 3.72758 19.7624 3.84166 19.8492C3.95573 19.9359 4.09073 19.9875 4.23136 19.998C4.37199 20.0085 4.51261 19.9775 4.63729 19.9086L10 16.9561L15.3628 19.9086C15.5092 19.9902 15.6792 20.0174 15.8421 19.9877C16.253 19.9135 16.5293 19.5055 16.4585 19.0753L15.4336 12.8215L19.7715 8.39272C19.8896 8.27156 19.9675 8.1133 19.9911 7.9402C20.0549 7.50746 19.7668 7.10686 19.3535 7.04257V7.04257Z" fill="#0561B7"/>
</svg>
