<svg width="31" height="29" viewBox="0 0 31 29" fill="none" xmlns="http://www.w3.org/2000/svg">
<path d="M29.8362 14.3135L16.9506 1.46868L16.0869 0.607264C15.8901 0.412286 15.624 0.302856 15.3466 0.302856C15.0692 0.302856 14.8031 0.412286 14.6063 0.607264L0.857055 14.3135C0.655405 14.5138 0.496038 14.7524 0.38836 15.0152C0.280683 15.2779 0.226877 15.5596 0.230119 15.8434C0.243458 17.0141 1.22054 17.9487 2.39438 17.9487H3.81166V28.7813H26.8816V17.9487H28.3289C28.8991 17.9487 29.436 17.7259 29.8395 17.3235C30.0382 17.1259 30.1956 16.8911 30.3027 16.6324C30.4097 16.3738 30.4642 16.0966 30.4631 15.8168C30.4631 15.2514 30.2397 14.7159 29.8362 14.3135ZM17.2141 26.3866H13.4791V19.6017H17.2141V26.3866ZM24.4805 15.5541V26.3866H19.3483V18.8035C19.3483 18.0685 18.7514 17.4731 18.0144 17.4731H12.6788C11.9418 17.4731 11.3449 18.0685 11.3449 18.8035V26.3866H6.21269V15.5541H3.01131L15.3499 3.25804L16.1203 4.02633L27.6853 15.5541H24.4805Z" fill="#0561B7"/>
</svg>
