<svg width="280" height="121" viewBox="0 0 280 121" fill="none" xmlns="http://www.w3.org/2000/svg">
<path d="M0 113.647H273.412V116.392H0V113.647Z" fill="#0561B7"/>
<path d="M280 113.647C280 117.286 277.051 120.235 273.412 120.235C269.773 120.235 266.824 117.286 266.824 113.647C266.824 110.008 269.773 107.059 273.412 107.059C277.051 107.059 280 110.008 280 113.647Z" fill="#0561B7"/>
<path d="M37.1189 110.482C37.4277 110.893 37.5821 111.331 37.5821 111.794C37.5821 112.36 37.3763 112.824 36.9645 113.184C36.5527 113.596 36.0638 113.801 35.4976 113.801C34.9314 113.801 34.4424 113.596 34.0307 113.184C33.6704 112.824 33.4902 112.36 33.4902 111.794C33.4902 111.331 33.6446 110.893 33.9535 110.482V19.4559C33.9535 17.1912 34.2108 15.0037 34.7255 12.8934C35.2402 10.7316 36.141 8.82721 37.4277 7.18015C38.7145 5.48162 40.413 4.11765 42.5233 3.08824C44.6851 2.05882 47.3616 1.54412 50.5527 1.54412H63.3689C63.8321 1.23529 64.2954 1.08088 64.7586 1.08088C65.3248 1.08088 65.8138 1.28676 66.2255 1.69853C66.6373 2.11029 66.8432 2.59926 66.8432 3.16544C66.8432 3.73162 66.6373 4.22059 66.2255 4.63235C65.8138 5.04412 65.3248 5.25 64.7586 5.25C64.3468 5.25 63.8836 5.06985 63.3689 4.70956H50.5527C47.9277 4.70956 45.7402 5.14706 43.9902 6.02206C42.2917 6.84559 40.9277 7.95221 39.8983 9.34191C38.8689 10.7316 38.1483 12.3272 37.7366 14.1287C37.3248 15.8787 37.1189 17.6544 37.1189 19.4559V33.1985H58.8138C59.277 32.8897 59.7402 32.7353 60.2035 32.7353C60.7696 32.7353 61.2586 32.9412 61.6704 33.3529C62.0821 33.7132 62.288 34.1765 62.288 34.7426C62.288 35.3088 62.0821 35.7978 61.6704 36.2096C61.2586 36.6213 60.7696 36.8272 60.2035 36.8272C59.7402 36.8272 59.277 36.6728 58.8138 36.364H37.1189V110.482Z" fill="#0561B7"/>
<path d="M76.4939 95.6581C76.4939 97.511 76.6998 99.3382 77.1116 101.14C77.5748 102.941 78.2954 104.562 79.2733 106.004C80.3027 107.393 81.6667 108.526 83.3652 109.401C85.0638 110.276 87.1483 110.713 89.6189 110.713C92.141 110.713 94.2513 110.276 95.9498 109.401C97.6483 108.526 98.9866 107.393 99.9645 106.004C100.994 104.562 101.714 102.941 102.126 101.14C102.538 99.3382 102.744 97.511 102.744 95.6581V49.7978C102.744 47.9963 102.538 46.1949 102.126 44.3934C101.714 42.5919 100.994 40.9963 99.9645 39.6066C98.9866 38.1654 97.6483 37.0074 95.9498 36.1324C94.2513 35.2059 92.141 34.7426 89.6189 34.7426C87.1483 34.7426 85.0638 35.2059 83.3652 36.1324C81.6667 37.0074 80.3027 38.1654 79.2733 39.6066C78.2954 40.9963 77.5748 42.5919 77.1116 44.3934C76.6998 46.1949 76.4939 47.9963 76.4939 49.7978V95.6581ZM105.909 95.6581C105.909 97.9228 105.626 100.136 105.06 102.298C104.545 104.46 103.645 106.39 102.358 108.088C101.071 109.787 99.3983 111.176 97.3395 112.257C95.2807 113.287 92.7071 113.801 89.6189 113.801C86.5307 113.801 83.9314 113.287 81.8211 112.257C79.7623 111.176 78.0895 109.787 76.8027 108.088C75.5674 106.39 74.6667 104.46 74.1005 102.298C73.5858 100.136 73.3285 97.9228 73.3285 95.6581V49.7978C73.3285 47.5331 73.5858 45.3199 74.1005 43.1581C74.6667 40.9963 75.5674 39.0662 76.8027 37.3676C78.0895 35.6691 79.7623 34.3051 81.8211 33.2757C83.9314 32.1949 86.5307 31.6544 89.6189 31.6544C92.7071 31.6544 95.2807 32.1949 97.3395 33.2757C99.3983 34.3051 101.071 35.6691 102.358 37.3676C103.645 39.0662 104.545 40.9963 105.06 43.1581C105.626 45.3199 105.909 47.5331 105.909 49.7978V95.6581Z" fill="#0561B7"/>
<path d="M120.192 95.6581C120.192 97.511 120.398 99.3382 120.81 101.14C121.273 102.941 121.994 104.562 122.972 106.004C124.001 107.393 125.365 108.526 127.064 109.401C128.762 110.276 130.847 110.713 133.317 110.713C135.839 110.713 137.95 110.276 139.648 109.401C141.347 108.526 142.685 107.393 143.663 106.004C144.692 104.562 145.413 102.941 145.825 101.14C146.237 99.3382 146.442 97.511 146.442 95.6581V49.7978C146.442 47.9963 146.237 46.1949 145.825 44.3934C145.413 42.5919 144.692 40.9963 143.663 39.6066C142.685 38.1654 141.347 37.0074 139.648 36.1324C137.95 35.2059 135.839 34.7426 133.317 34.7426C130.847 34.7426 128.762 35.2059 127.064 36.1324C125.365 37.0074 124.001 38.1654 122.972 39.6066C121.994 40.9963 121.273 42.5919 120.81 44.3934C120.398 46.1949 120.192 47.9963 120.192 49.7978V95.6581ZM149.608 95.6581C149.608 97.9228 149.325 100.136 148.759 102.298C148.244 104.46 147.343 106.39 146.056 108.088C144.77 109.787 143.097 111.176 141.038 112.257C138.979 113.287 136.406 113.801 133.317 113.801C130.229 113.801 127.63 113.287 125.52 112.257C123.461 111.176 121.788 109.787 120.501 108.088C119.266 106.39 118.365 104.46 117.799 102.298C117.284 100.136 117.027 97.9228 117.027 95.6581V49.7978C117.027 47.5331 117.284 45.3199 117.799 43.1581C118.365 40.9963 119.266 39.0662 120.501 37.3676C121.788 35.6691 123.461 34.3051 125.52 33.2757C127.63 32.1949 130.229 31.6544 133.317 31.6544C136.406 31.6544 138.979 32.1949 141.038 33.2757C143.097 34.3051 144.77 35.6691 146.056 37.3676C147.343 39.0662 148.244 40.9963 148.759 43.1581C149.325 45.3199 149.608 47.5331 149.608 49.7978V95.6581Z" fill="#0561B7"/>
<path d="M160.726 49.7978C160.726 47.5331 160.983 45.3199 161.498 43.1581C162.012 40.9963 162.887 39.0662 164.123 37.3676C165.409 35.6691 167.082 34.3051 169.141 33.2757C171.251 32.1949 173.876 31.6544 177.016 31.6544C180.207 31.6544 182.832 32.2721 184.891 33.5074C186.95 34.6912 188.7 36.5184 190.141 38.989V3.47426C189.832 3.01103 189.678 2.54779 189.678 2.08456C189.678 1.51838 189.884 1.02941 190.295 0.617647C190.707 0.205882 191.196 0 191.762 0C192.328 0 192.792 0.205882 193.152 0.617647C193.564 1.02941 193.77 1.51838 193.77 2.08456C193.77 2.54779 193.615 3.01103 193.306 3.47426V110.482C193.615 110.893 193.77 111.331 193.77 111.794C193.77 112.36 193.564 112.824 193.152 113.184C192.792 113.596 192.328 113.801 191.762 113.801C191.196 113.801 190.707 113.596 190.295 113.184C189.884 112.824 189.678 112.36 189.678 111.794C189.678 111.331 189.832 110.893 190.141 110.482V107.162C188.7 109.169 186.95 110.79 184.891 112.026C182.832 113.21 180.207 113.801 177.016 113.801C173.876 113.801 171.251 113.287 169.141 112.257C167.082 111.176 165.409 109.787 164.123 108.088C162.887 106.39 162.012 104.46 161.498 102.298C160.983 100.136 160.726 97.9228 160.726 95.6581V49.7978ZM190.141 49.7978C190.141 47.9963 189.858 46.1949 189.292 44.3934C188.777 42.5919 187.979 40.9963 186.898 39.6066C185.817 38.1654 184.453 37.0074 182.806 36.1324C181.159 35.2059 179.229 34.7426 177.016 34.7426C174.442 34.7426 172.306 35.2059 170.608 36.1324C168.961 37.0074 167.623 38.1654 166.593 39.6066C165.615 40.9963 164.92 42.5919 164.509 44.3934C164.097 46.1949 163.891 47.9963 163.891 49.7978V95.6581C163.891 97.4596 164.097 99.261 164.509 101.062C164.92 102.864 165.615 104.485 166.593 105.926C167.623 107.368 168.961 108.526 170.608 109.401C172.306 110.276 174.442 110.713 177.016 110.713C179.487 110.713 181.545 110.25 183.192 109.324C184.891 108.397 186.255 107.213 187.284 105.772C188.314 104.331 189.034 102.735 189.446 100.985C189.909 99.1838 190.141 97.4081 190.141 95.6581V49.7978Z" fill="#0561B7"/>
<path d="M209.597 110.482C209.906 110.893 210.06 111.331 210.06 111.794C210.06 112.36 209.854 112.824 209.442 113.184C209.082 113.596 208.619 113.801 208.053 113.801C207.487 113.801 206.998 113.596 206.586 113.184C206.174 112.824 205.968 112.36 205.968 111.794C205.968 111.331 206.123 110.893 206.431 110.482V35.1287C206.123 34.614 205.968 34.125 205.968 33.6618C205.968 33.0956 206.174 32.6324 206.586 32.2721C206.998 31.8603 207.487 31.6544 208.053 31.6544C208.619 31.6544 209.082 31.8603 209.442 32.2721C209.854 32.6324 210.06 33.0956 210.06 33.6618C210.06 34.125 209.906 34.614 209.597 35.1287V110.482ZM209.597 14.2059C209.906 14.5147 210.06 14.9265 210.06 15.4412C210.06 16.0074 209.854 16.4963 209.442 16.9081C209.082 17.3199 208.619 17.5257 208.053 17.5257C207.487 17.5257 206.998 17.3199 206.586 16.9081C206.174 16.4963 205.968 16.0074 205.968 15.4412C205.968 14.9265 206.123 14.5147 206.431 14.2059V9.65073C206.123 9.13603 205.968 8.64706 205.968 8.18382C205.968 7.61765 206.174 7.15441 206.586 6.79412C206.998 6.38235 207.487 6.17647 208.053 6.17647C208.619 6.17647 209.082 6.38235 209.442 6.79412C209.854 7.15441 210.06 7.61765 210.06 8.18382C210.06 8.64706 209.906 9.13603 209.597 9.65073V14.2059Z" fill="#0561B7"/>
<path d="M230.674 95.1948C230.674 97.0993 230.88 98.9265 231.292 100.676C231.703 102.426 232.373 103.996 233.299 105.386C234.277 106.776 235.564 107.908 237.159 108.783C238.755 109.658 240.711 110.121 243.027 110.173C243.49 109.864 243.979 109.71 244.494 109.71C245.06 109.71 245.523 109.915 245.884 110.327C246.295 110.739 246.501 111.228 246.501 111.794C246.501 112.36 246.295 112.824 245.884 113.184C245.523 113.596 245.06 113.801 244.494 113.801C243.979 113.801 243.49 113.647 243.027 113.338C240.093 113.235 237.623 112.643 235.615 111.562C233.659 110.482 232.064 109.118 230.828 107.471C229.645 105.772 228.795 103.868 228.281 101.757C227.766 99.5956 227.509 97.4081 227.509 95.1948V36.364H220.406C220.097 36.6728 219.685 36.8272 219.17 36.8272C218.604 36.8272 218.115 36.6213 217.703 36.2096C217.292 35.7978 217.086 35.3088 217.086 34.7426C217.086 34.1765 217.292 33.7132 217.703 33.3529C218.115 32.9412 218.604 32.7353 219.17 32.7353C219.685 32.7353 220.097 32.8897 220.406 33.1985H227.509V9.65073C227.2 9.13603 227.045 8.64706 227.045 8.18382C227.045 7.61765 227.251 7.15441 227.663 6.79412C228.075 6.38235 228.564 6.17647 229.13 6.17647C229.696 6.17647 230.185 6.38235 230.597 6.79412C231.009 7.15441 231.214 7.61765 231.214 8.18382C231.214 8.54412 231.034 9.03309 230.674 9.65073V33.1985H243.027C243.49 32.8897 243.979 32.7353 244.494 32.7353C245.06 32.7353 245.523 32.9412 245.884 33.3529C246.295 33.7132 246.501 34.1765 246.501 34.7426C246.501 35.3088 246.295 35.7978 245.884 36.2096C245.523 36.6213 245.06 36.8272 244.494 36.8272C243.979 36.8272 243.49 36.6728 243.027 36.364H230.674V95.1948Z" fill="#0561B7"/>
</svg>
