<svg width="257" height="119" viewBox="0 0 257 119" fill="none" xmlns="http://www.w3.org/2000/svg">
<path d="M17.0312 109.281C17.1562 109.448 17.2188 109.625 17.2188 109.812C17.2188 110.042 17.1354 110.229 16.9688 110.375C16.8229 110.542 16.6354 110.625 16.4062 110.625C16.1771 110.625 15.9792 110.542 15.8125 110.375C15.6458 110.229 15.5625 110.042 15.5625 109.812C15.5625 109.625 15.625 109.448 15.75 109.281V65.9688C15.625 65.7812 15.5625 65.5938 15.5625 65.4062C15.5625 65.1771 15.6458 64.9792 15.8125 64.8125C15.9792 64.6458 16.1771 64.5625 16.4062 64.5625C16.6354 64.5625 16.8229 64.6458 16.9688 64.8125C17.1354 64.9792 17.2188 65.1771 17.2188 65.4062C17.2188 65.5938 17.1562 65.7812 17.0312 65.9688V109.281ZM25.625 103.094C25.625 103.865 25.7083 104.604 25.875 105.312C26.0417 106.021 26.3125 106.656 26.6875 107.219C27.0833 107.781 27.6042 108.24 28.25 108.594C28.8958 108.948 29.6875 109.135 30.625 109.156C30.8125 109.031 31.0104 108.969 31.2188 108.969C31.4479 108.969 31.6354 109.052 31.7812 109.219C31.9479 109.385 32.0312 109.583 32.0312 109.812C32.0312 110.042 31.9479 110.229 31.7812 110.375C31.6354 110.542 31.4479 110.625 31.2188 110.625C31.0104 110.625 30.8125 110.562 30.625 110.438C29.4375 110.396 28.4375 110.156 27.625 109.719C26.8333 109.281 26.1875 108.729 25.6875 108.062C25.2083 107.375 24.8646 106.604 24.6562 105.75C24.4479 104.875 24.3438 103.99 24.3438 103.094V79.2812H21.4688C21.3438 79.4062 21.1771 79.4688 20.9688 79.4688C20.7396 79.4688 20.5417 79.3854 20.375 79.2188C20.2083 79.0521 20.125 78.8542 20.125 78.625C20.125 78.3958 20.2083 78.2083 20.375 78.0625C20.5417 77.8958 20.7396 77.8125 20.9688 77.8125C21.1771 77.8125 21.3438 77.875 21.4688 78H24.3438V68.4688C24.2188 68.2604 24.1562 68.0625 24.1562 67.875C24.1562 67.6458 24.2396 67.4583 24.4062 67.3125C24.5729 67.1458 24.7708 67.0625 25 67.0625C25.2292 67.0625 25.4271 67.1458 25.5938 67.3125C25.7604 67.4583 25.8438 67.6458 25.8438 67.875C25.8438 68.0208 25.7708 68.2188 25.625 68.4688V78H30.625C30.8125 77.875 31.0104 77.8125 31.2188 77.8125C31.4479 77.8125 31.6354 77.8958 31.7812 78.0625C31.9479 78.2083 32.0312 78.3958 32.0312 78.625C32.0312 78.8542 31.9479 79.0521 31.7812 79.2188C31.6354 79.3854 31.4479 79.4688 31.2188 79.4688C31.0104 79.4688 30.8125 79.4062 30.625 79.2812H25.625V103.094ZM34.0938 70.7188C34.0938 70.9479 34.0104 71.1458 33.8438 71.3125C33.6979 71.4792 33.5104 71.5625 33.2812 71.5625C33.0521 71.5625 32.8542 71.4792 32.6875 71.3125C32.5208 71.1458 32.4375 70.9479 32.4375 70.7188C32.4375 70.3021 32.6354 70.0208 33.0312 69.875L34.75 66.8125C34.625 66.625 34.5625 66.3646 34.5625 66.0312C34.5625 65.6146 34.6771 65.2708 34.9062 65C35.1562 64.7083 35.5104 64.5625 35.9688 64.5625C36.4479 64.5625 36.8125 64.7083 37.0625 65C37.3125 65.2708 37.4375 65.6146 37.4375 66.0312C37.4375 66.4271 37.3125 66.7604 37.0625 67.0312C36.8125 67.3021 36.4479 67.4375 35.9688 67.4375H35.8438L34.0938 70.5938V70.7188ZM50.5938 96.4375C51.1354 96.9375 51.5833 97.4479 51.9375 97.9688C52.2917 98.4896 52.5625 99.0208 52.75 99.5625C52.9583 100.104 53.0938 100.646 53.1562 101.188C53.2396 101.729 53.2812 102.26 53.2812 102.781C53.2812 103.865 53.1667 104.885 52.9375 105.844C52.7292 106.802 52.3542 107.635 51.8125 108.344C51.2917 109.052 50.5833 109.604 49.6875 110C48.7917 110.417 47.6667 110.625 46.3125 110.625C45.0208 110.625 43.9375 110.427 43.0625 110.031C42.1875 109.635 41.4688 109.115 40.9062 108.469C40.3646 107.802 39.9583 107.042 39.6875 106.188C39.4167 105.333 39.2604 104.448 39.2188 103.531C39.1562 103.469 39.1042 103.385 39.0625 103.281C39.0417 103.177 39.0312 103.073 39.0312 102.969C39.0312 102.74 39.1042 102.542 39.25 102.375C39.4167 102.208 39.6146 102.125 39.8438 102.125C40.0729 102.125 40.2708 102.208 40.4375 102.375C40.6042 102.542 40.6875 102.74 40.6875 102.969C40.6875 103.052 40.6458 103.177 40.5625 103.344C40.5833 104.094 40.6979 104.833 40.9062 105.562C41.1354 106.292 41.4688 106.948 41.9062 107.531C42.3646 108.094 42.9479 108.552 43.6562 108.906C44.3854 109.26 45.2708 109.438 46.3125 109.438C47.5208 109.438 48.5 109.25 49.25 108.875C50 108.479 50.5833 107.969 51 107.344C51.4167 106.698 51.6875 105.979 51.8125 105.188C51.9583 104.396 52.0312 103.594 52.0312 102.781C52.0312 101.719 51.8333 100.729 51.4375 99.8125C51.0625 98.875 50.4896 98.0417 49.7188 97.3125L42.4688 90.8125C41.9688 90.3542 41.5625 89.9062 41.25 89.4688C40.9583 89.0104 40.7292 88.5417 40.5625 88.0625C40.3958 87.5625 40.2812 87.0521 40.2188 86.5312C40.1562 86.0104 40.125 85.4479 40.125 84.8438C40.125 83.8646 40.2396 82.9271 40.4688 82.0312C40.6979 81.1354 41.0729 80.3438 41.5938 79.6562C42.1354 78.9688 42.8333 78.4167 43.6875 78C44.5417 77.5833 45.5938 77.375 46.8438 77.375C47.9688 77.375 48.9271 77.5625 49.7188 77.9375C50.5104 78.3125 51.1562 78.8125 51.6562 79.4375C52.1562 80.0625 52.5312 80.7812 52.7812 81.5938C53.0312 82.3854 53.1771 83.2188 53.2188 84.0938C53.3646 84.2188 53.4375 84.3854 53.4375 84.5938C53.4375 84.8229 53.3542 85.0208 53.1875 85.1875C53.0208 85.3542 52.8229 85.4375 52.5938 85.4375C52.4062 85.4375 52.2292 85.3542 52.0625 85.1875C51.8958 85.0208 51.8125 84.8229 51.8125 84.5938C51.8125 84.4271 51.8854 84.2812 52.0312 84.1562C51.9896 83.4688 51.8646 82.7917 51.6562 82.125C51.4479 81.4583 51.1354 80.875 50.7188 80.375C50.3021 79.8542 49.7708 79.4375 49.125 79.125C48.5 78.7917 47.7396 78.625 46.8438 78.625C45.8438 78.625 44.9896 78.8021 44.2812 79.1562C43.5938 79.5104 43.0312 79.9792 42.5938 80.5625C42.1771 81.125 41.875 81.7812 41.6875 82.5312C41.5 83.2812 41.4062 84.0521 41.4062 84.8438C41.4271 86.0729 41.5729 87.0729 41.8438 87.8438C42.1146 88.6146 42.6042 89.3021 43.3125 89.9062L50.5938 96.4375ZM78.1562 96.4375C78.6979 96.9375 79.1458 97.4479 79.5 97.9688C79.8542 98.4896 80.125 99.0208 80.3125 99.5625C80.5208 100.104 80.6562 100.646 80.7188 101.188C80.8021 101.729 80.8438 102.26 80.8438 102.781C80.8438 103.865 80.7292 104.885 80.5 105.844C80.2917 106.802 79.9167 107.635 79.375 108.344C78.8542 109.052 78.1458 109.604 77.25 110C76.3542 110.417 75.2292 110.625 73.875 110.625C72.5833 110.625 71.5 110.427 70.625 110.031C69.75 109.635 69.0312 109.115 68.4688 108.469C67.9271 107.802 67.5208 107.042 67.25 106.188C66.9792 105.333 66.8229 104.448 66.7812 103.531C66.7188 103.469 66.6667 103.385 66.625 103.281C66.6042 103.177 66.5938 103.073 66.5938 102.969C66.5938 102.74 66.6667 102.542 66.8125 102.375C66.9792 102.208 67.1771 102.125 67.4062 102.125C67.6354 102.125 67.8333 102.208 68 102.375C68.1667 102.542 68.25 102.74 68.25 102.969C68.25 103.052 68.2083 103.177 68.125 103.344C68.1458 104.094 68.2604 104.833 68.4688 105.562C68.6979 106.292 69.0312 106.948 69.4688 107.531C69.9271 108.094 70.5104 108.552 71.2188 108.906C71.9479 109.26 72.8333 109.438 73.875 109.438C75.0833 109.438 76.0625 109.25 76.8125 108.875C77.5625 108.479 78.1458 107.969 78.5625 107.344C78.9792 106.698 79.25 105.979 79.375 105.188C79.5208 104.396 79.5938 103.594 79.5938 102.781C79.5938 101.719 79.3958 100.729 79 99.8125C78.625 98.875 78.0521 98.0417 77.2812 97.3125L70.0312 90.8125C69.5312 90.3542 69.125 89.9062 68.8125 89.4688C68.5208 89.0104 68.2917 88.5417 68.125 88.0625C67.9583 87.5625 67.8438 87.0521 67.7812 86.5312C67.7188 86.0104 67.6875 85.4479 67.6875 84.8438C67.6875 83.8646 67.8021 82.9271 68.0312 82.0312C68.2604 81.1354 68.6354 80.3438 69.1562 79.6562C69.6979 78.9688 70.3958 78.4167 71.25 78C72.1042 77.5833 73.1562 77.375 74.4062 77.375C75.5312 77.375 76.4896 77.5625 77.2812 77.9375C78.0729 78.3125 78.7188 78.8125 79.2188 79.4375C79.7188 80.0625 80.0938 80.7812 80.3438 81.5938C80.5938 82.3854 80.7396 83.2188 80.7812 84.0938C80.9271 84.2188 81 84.3854 81 84.5938C81 84.8229 80.9167 85.0208 80.75 85.1875C80.5833 85.3542 80.3854 85.4375 80.1562 85.4375C79.9688 85.4375 79.7917 85.3542 79.625 85.1875C79.4583 85.0208 79.375 84.8229 79.375 84.5938C79.375 84.4271 79.4479 84.2812 79.5938 84.1562C79.5521 83.4688 79.4271 82.7917 79.2188 82.125C79.0104 81.4583 78.6979 80.875 78.2812 80.375C77.8646 79.8542 77.3333 79.4375 76.6875 79.125C76.0625 78.7917 75.3021 78.625 74.4062 78.625C73.4062 78.625 72.5521 78.8021 71.8438 79.1562C71.1562 79.5104 70.5938 79.9792 70.1562 80.5625C69.7396 81.125 69.4375 81.7812 69.25 82.5312C69.0625 83.2812 68.9688 84.0521 68.9688 84.8438C68.9896 86.0729 69.1354 87.0729 69.4062 87.8438C69.6771 88.6146 70.1667 89.3021 70.875 89.9062L78.1562 96.4375ZM88.3125 103.094C88.3125 103.865 88.3958 104.604 88.5625 105.312C88.7292 106.021 89 106.656 89.375 107.219C89.7708 107.781 90.2917 108.24 90.9375 108.594C91.5833 108.948 92.375 109.135 93.3125 109.156C93.5 109.031 93.6979 108.969 93.9062 108.969C94.1354 108.969 94.3229 109.052 94.4688 109.219C94.6354 109.385 94.7188 109.583 94.7188 109.812C94.7188 110.042 94.6354 110.229 94.4688 110.375C94.3229 110.542 94.1354 110.625 93.9062 110.625C93.6979 110.625 93.5 110.562 93.3125 110.438C92.125 110.396 91.125 110.156 90.3125 109.719C89.5208 109.281 88.875 108.729 88.375 108.062C87.8958 107.375 87.5521 106.604 87.3438 105.75C87.1354 104.875 87.0312 103.99 87.0312 103.094V79.2812H84.1562C84.0312 79.4062 83.8646 79.4688 83.6562 79.4688C83.4271 79.4688 83.2292 79.3854 83.0625 79.2188C82.8958 79.0521 82.8125 78.8542 82.8125 78.625C82.8125 78.3958 82.8958 78.2083 83.0625 78.0625C83.2292 77.8958 83.4271 77.8125 83.6562 77.8125C83.8646 77.8125 84.0312 77.875 84.1562 78H87.0312V68.4688C86.9062 68.2604 86.8438 68.0625 86.8438 67.875C86.8438 67.6458 86.9271 67.4583 87.0938 67.3125C87.2604 67.1458 87.4583 67.0625 87.6875 67.0625C87.9167 67.0625 88.1146 67.1458 88.2812 67.3125C88.4479 67.4583 88.5312 67.6458 88.5312 67.875C88.5312 68.0208 88.4583 68.2188 88.3125 68.4688V78H93.3125C93.5 77.875 93.6979 77.8125 93.9062 77.8125C94.1354 77.8125 94.3229 77.8958 94.4688 78.0625C94.6354 78.2083 94.7188 78.3958 94.7188 78.625C94.7188 78.8542 94.6354 79.0521 94.4688 79.2188C94.3229 79.3854 94.1354 79.4688 93.9062 79.4688C93.6979 79.4688 93.5 79.4062 93.3125 79.2812H88.3125V103.094ZM98.7812 109.281C98.9062 109.448 98.9688 109.625 98.9688 109.812C98.9688 110.042 98.8854 110.229 98.7188 110.375C98.5729 110.542 98.3854 110.625 98.1562 110.625C97.9271 110.625 97.7292 110.542 97.5625 110.375C97.3958 110.229 97.3125 110.042 97.3125 109.812C97.3125 109.625 97.375 109.448 97.5 109.281V78.7812C97.375 78.5729 97.3125 78.375 97.3125 78.1875C97.3125 77.9583 97.3958 77.7708 97.5625 77.625C97.7292 77.4583 97.9271 77.375 98.1562 77.375C98.3854 77.375 98.5729 77.4583 98.7188 77.625C98.8854 77.7708 98.9688 77.9583 98.9688 78.1875C98.9688 78.375 98.9062 78.5729 98.7812 78.7812V109.281ZM98.7812 70.3125C98.9062 70.4375 98.9688 70.6042 98.9688 70.8125C98.9688 71.0417 98.8854 71.2396 98.7188 71.4062C98.5729 71.5729 98.3854 71.6562 98.1562 71.6562C97.9271 71.6562 97.7292 71.5729 97.5625 71.4062C97.3958 71.2396 97.3125 71.0417 97.3125 70.8125C97.3125 70.6042 97.375 70.4375 97.5 70.3125V68.4688C97.375 68.2604 97.3125 68.0625 97.3125 67.875C97.3125 67.6458 97.3958 67.4583 97.5625 67.3125C97.7292 67.1458 97.9271 67.0625 98.1562 67.0625C98.3854 67.0625 98.5729 67.1458 98.7188 67.3125C98.8854 67.4583 98.9688 67.6458 98.9688 67.875C98.9688 68.0625 98.9062 68.2604 98.7812 68.4688V70.3125ZM105.531 109.281C105.656 109.448 105.719 109.625 105.719 109.812C105.719 110.042 105.635 110.229 105.469 110.375C105.323 110.542 105.135 110.625 104.906 110.625C104.677 110.625 104.479 110.542 104.312 110.375C104.146 110.229 104.062 110.042 104.062 109.812C104.062 109.625 104.125 109.448 104.25 109.281V65.9688C104.125 65.7812 104.062 65.5938 104.062 65.4062C104.062 65.1771 104.146 64.9792 104.312 64.8125C104.479 64.6458 104.677 64.5625 104.906 64.5625C105.135 64.5625 105.323 64.6458 105.469 64.8125C105.635 64.9792 105.719 65.1771 105.719 65.4062C105.719 65.5938 105.656 65.7812 105.531 65.9688V109.281ZM112.281 109.281C112.406 109.448 112.469 109.625 112.469 109.812C112.469 110.042 112.385 110.229 112.219 110.375C112.073 110.542 111.885 110.625 111.656 110.625C111.427 110.625 111.229 110.542 111.062 110.375C110.896 110.229 110.812 110.042 110.812 109.812C110.812 109.625 110.875 109.448 111 109.281V65.9688C110.875 65.7812 110.812 65.5938 110.812 65.4062C110.812 65.1771 110.896 64.9792 111.062 64.8125C111.229 64.6458 111.427 64.5625 111.656 64.5625C111.885 64.5625 112.073 64.6458 112.219 64.8125C112.385 64.9792 112.469 65.1771 112.469 65.4062C112.469 65.5938 112.406 65.7812 112.281 65.9688V109.281ZM131.312 109.281C131.438 109.448 131.5 109.625 131.5 109.812C131.5 110.042 131.417 110.229 131.25 110.375C131.104 110.542 130.917 110.625 130.688 110.625C130.458 110.625 130.26 110.542 130.094 110.375C129.927 110.229 129.844 110.042 129.844 109.812C129.844 109.625 129.906 109.448 130.031 109.281V79.2812H127.156C127.031 79.4062 126.865 79.4688 126.656 79.4688C126.427 79.4688 126.229 79.3854 126.062 79.2188C125.896 79.0521 125.812 78.8542 125.812 78.625C125.812 78.3958 125.896 78.2083 126.062 78.0625C126.229 77.8958 126.427 77.8125 126.656 77.8125C126.865 77.8125 127.031 77.875 127.156 78H130.031V72.5625C130.031 71.6875 130.135 70.8229 130.344 69.9688C130.552 69.0938 130.896 68.3125 131.375 67.625C131.875 66.9375 132.521 66.375 133.312 65.9375C134.125 65.5 135.125 65.25 136.312 65.1875C136.5 65.0625 136.688 65 136.875 65C137.104 65 137.302 65.0833 137.469 65.25C137.635 65.4167 137.719 65.6146 137.719 65.8438C137.719 66.0729 137.635 66.2708 137.469 66.4375C137.302 66.6042 137.104 66.6875 136.875 66.6875C136.708 66.6875 136.521 66.6146 136.312 66.4688C135.375 66.5312 134.583 66.75 133.938 67.125C133.312 67.4792 132.802 67.9479 132.406 68.5312C132.031 69.0938 131.76 69.7292 131.594 70.4375C131.427 71.1458 131.333 71.8542 131.312 72.5625V78H136.312C136.5 77.875 136.688 77.8125 136.875 77.8125C137.104 77.8125 137.302 77.8958 137.469 78.0625C137.635 78.2083 137.719 78.3958 137.719 78.625C137.719 78.8542 137.635 79.0521 137.469 79.2188C137.302 79.3854 137.104 79.4688 136.875 79.4688C136.688 79.4688 136.5 79.4062 136.312 79.2812H131.312V109.281ZM141.656 103.281C141.656 104.031 141.74 104.771 141.906 105.5C142.094 106.229 142.385 106.885 142.781 107.469C143.198 108.031 143.75 108.49 144.438 108.844C145.125 109.198 145.969 109.375 146.969 109.375C147.99 109.375 148.844 109.198 149.531 108.844C150.219 108.49 150.76 108.031 151.156 107.469C151.573 106.885 151.865 106.229 152.031 105.5C152.198 104.771 152.281 104.031 152.281 103.281V84.7188C152.281 83.9896 152.198 83.2604 152.031 82.5312C151.865 81.8021 151.573 81.1562 151.156 80.5938C150.76 80.0104 150.219 79.5417 149.531 79.1875C148.844 78.8125 147.99 78.625 146.969 78.625C145.969 78.625 145.125 78.8125 144.438 79.1875C143.75 79.5417 143.198 80.0104 142.781 80.5938C142.385 81.1562 142.094 81.8021 141.906 82.5312C141.74 83.2604 141.656 83.9896 141.656 84.7188V103.281ZM153.562 103.281C153.562 104.198 153.448 105.094 153.219 105.969C153.01 106.844 152.646 107.625 152.125 108.312C151.604 109 150.927 109.562 150.094 110C149.26 110.417 148.219 110.625 146.969 110.625C145.719 110.625 144.667 110.417 143.812 110C142.979 109.562 142.302 109 141.781 108.312C141.281 107.625 140.917 106.844 140.688 105.969C140.479 105.094 140.375 104.198 140.375 103.281V84.7188C140.375 83.8021 140.479 82.9062 140.688 82.0312C140.917 81.1562 141.281 80.375 141.781 79.6875C142.302 79 142.979 78.4479 143.812 78.0312C144.667 77.5938 145.719 77.375 146.969 77.375C148.219 77.375 149.26 77.5938 150.094 78.0312C150.927 78.4479 151.604 79 152.125 79.6875C152.646 80.375 153.01 81.1562 153.219 82.0312C153.448 82.9062 153.562 83.8021 153.562 84.7188V103.281ZM159.344 103.281C159.344 104.031 159.427 104.771 159.594 105.5C159.781 106.229 160.073 106.885 160.469 107.469C160.885 108.031 161.438 108.49 162.125 108.844C162.812 109.198 163.656 109.375 164.656 109.375C165.677 109.375 166.531 109.198 167.219 108.844C167.906 108.49 168.448 108.031 168.844 107.469C169.26 106.885 169.552 106.229 169.719 105.5C169.885 104.771 169.969 104.031 169.969 103.281V84.7188C169.969 83.9896 169.885 83.2604 169.719 82.5312C169.552 81.8021 169.26 81.1562 168.844 80.5938C168.448 80.0104 167.906 79.5417 167.219 79.1875C166.531 78.8125 165.677 78.625 164.656 78.625C163.656 78.625 162.812 78.8125 162.125 79.1875C161.438 79.5417 160.885 80.0104 160.469 80.5938C160.073 81.1562 159.781 81.8021 159.594 82.5312C159.427 83.2604 159.344 83.9896 159.344 84.7188V103.281ZM171.25 103.281C171.25 104.198 171.135 105.094 170.906 105.969C170.698 106.844 170.333 107.625 169.812 108.312C169.292 109 168.615 109.562 167.781 110C166.948 110.417 165.906 110.625 164.656 110.625C163.406 110.625 162.354 110.417 161.5 110C160.667 109.562 159.99 109 159.469 108.312C158.969 107.625 158.604 106.844 158.375 105.969C158.167 105.094 158.062 104.198 158.062 103.281V84.7188C158.062 83.8021 158.167 82.9062 158.375 82.0312C158.604 81.1562 158.969 80.375 159.469 79.6875C159.99 79 160.667 78.4479 161.5 78.0312C162.354 77.5938 163.406 77.375 164.656 77.375C165.906 77.375 166.948 77.5938 167.781 78.0312C168.615 78.4479 169.292 79 169.812 79.6875C170.333 80.375 170.698 81.1562 170.906 82.0312C171.135 82.9062 171.25 83.8021 171.25 84.7188V103.281ZM175.75 84.7188C175.75 83.8021 175.854 82.9062 176.062 82.0312C176.271 81.1562 176.625 80.375 177.125 79.6875C177.646 79 178.323 78.4479 179.156 78.0312C180.01 77.5938 181.073 77.375 182.344 77.375C183.635 77.375 184.698 77.625 185.531 78.125C186.365 78.6042 187.073 79.3438 187.656 80.3438V65.9688C187.531 65.7812 187.469 65.5938 187.469 65.4062C187.469 65.1771 187.552 64.9792 187.719 64.8125C187.885 64.6458 188.083 64.5625 188.312 64.5625C188.542 64.5625 188.729 64.6458 188.875 64.8125C189.042 64.9792 189.125 65.1771 189.125 65.4062C189.125 65.5938 189.062 65.7812 188.938 65.9688V109.281C189.062 109.448 189.125 109.625 189.125 109.812C189.125 110.042 189.042 110.229 188.875 110.375C188.729 110.542 188.542 110.625 188.312 110.625C188.083 110.625 187.885 110.542 187.719 110.375C187.552 110.229 187.469 110.042 187.469 109.812C187.469 109.625 187.531 109.448 187.656 109.281V107.938C187.073 108.75 186.365 109.406 185.531 109.906C184.698 110.385 183.635 110.625 182.344 110.625C181.073 110.625 180.01 110.417 179.156 110C178.323 109.562 177.646 109 177.125 108.312C176.625 107.625 176.271 106.844 176.062 105.969C175.854 105.094 175.75 104.198 175.75 103.281V84.7188ZM187.656 84.7188C187.656 83.9896 187.542 83.2604 187.312 82.5312C187.104 81.8021 186.781 81.1562 186.344 80.5938C185.906 80.0104 185.354 79.5417 184.688 79.1875C184.021 78.8125 183.24 78.625 182.344 78.625C181.302 78.625 180.438 78.8125 179.75 79.1875C179.083 79.5417 178.542 80.0104 178.125 80.5938C177.729 81.1562 177.448 81.8021 177.281 82.5312C177.115 83.2604 177.031 83.9896 177.031 84.7188V103.281C177.031 104.01 177.115 104.74 177.281 105.469C177.448 106.198 177.729 106.854 178.125 107.438C178.542 108.021 179.083 108.49 179.75 108.844C180.438 109.198 181.302 109.375 182.344 109.375C183.344 109.375 184.177 109.188 184.844 108.812C185.531 108.438 186.083 107.958 186.5 107.375C186.917 106.792 187.208 106.146 187.375 105.438C187.562 104.708 187.656 103.99 187.656 103.281V84.7188Z" fill="#006149"/>
<path d="M12 52.4946H254.968V53.7406H12V52.4946Z" fill="#0561B7"/>
<path d="M257 53.0804C257 54.4361 256.127 55.5351 255.05 55.5351C253.972 55.5351 253.099 54.4361 253.099 53.0804C253.099 51.7247 253.972 50.6257 255.05 50.6257C256.127 50.6257 257 51.7247 257 53.0804Z" fill="#0561B7"/>
<path d="M17.2338 51.295C17.3772 51.4862 17.4489 51.6893 17.4489 51.9044C17.4489 52.1673 17.3533 52.3824 17.1621 52.5496C16.9709 52.7408 16.7439 52.8364 16.4811 52.8364C16.2182 52.8364 15.9912 52.7408 15.8 52.5496C15.6327 52.3824 15.5491 52.1673 15.5491 51.9044C15.5491 51.6893 15.6208 51.4862 15.7641 51.295V9.03309C15.7641 7.98162 15.8836 6.96599 16.1226 5.98621C16.3616 4.98254 16.7798 4.09835 17.3772 3.33364C17.9746 2.54504 18.7632 1.91176 19.743 1.43382C20.7467 0.955882 21.9893 0.716912 23.4709 0.716912H29.4213C29.6364 0.573529 29.8515 0.501838 30.0665 0.501838C30.3294 0.501838 30.5564 0.597427 30.7476 0.788603C30.9388 0.979779 31.0344 1.2068 31.0344 1.46967C31.0344 1.73254 30.9388 1.95956 30.7476 2.15074C30.5564 2.34191 30.3294 2.4375 30.0665 2.4375C29.8754 2.4375 29.6603 2.35386 29.4213 2.18658H23.4709C22.2522 2.18658 21.2366 2.38971 20.4241 2.79596C19.6355 3.17831 19.0022 3.6921 18.5243 4.33732C18.0463 4.98254 17.7118 5.72335 17.5206 6.55974C17.3294 7.37224 17.2338 8.19669 17.2338 9.03309V15.4136H27.3064C27.5215 15.2702 27.7366 15.1985 27.9516 15.1985C28.2145 15.1985 28.4415 15.2941 28.6327 15.4853C28.8239 15.6526 28.9195 15.8676 28.9195 16.1305C28.9195 16.3934 28.8239 16.6204 28.6327 16.8116C28.4415 17.0028 28.2145 17.0983 27.9516 17.0983C27.7366 17.0983 27.5215 17.0267 27.3064 16.8833H17.2338V51.295Z" fill="#0561B7"/>
<path d="M35.5151 44.4127C35.5151 45.273 35.6107 46.1213 35.8018 46.9577C36.0169 47.7941 36.3515 48.5469 36.8055 49.216C37.2834 49.8612 37.9167 50.387 38.7053 50.7932C39.4939 51.1995 40.4618 51.4026 41.6088 51.4026C42.7798 51.4026 43.7595 51.1995 44.5482 50.7932C45.3368 50.387 45.9581 49.8612 46.4121 49.216C46.8901 48.5469 47.2246 47.7941 47.4158 46.9577C47.607 46.1213 47.7026 45.273 47.7026 44.4127V23.1204C47.7026 22.284 47.607 21.4476 47.4158 20.6112C47.2246 19.7748 46.8901 19.034 46.4121 18.3888C45.9581 17.7197 45.3368 17.182 44.5482 16.7757C43.7595 16.3456 42.7798 16.1305 41.6088 16.1305C40.4618 16.1305 39.4939 16.3456 38.7053 16.7757C37.9167 17.182 37.2834 17.7197 36.8055 18.3888C36.3515 19.034 36.0169 19.7748 35.8018 20.6112C35.6107 21.4476 35.5151 22.284 35.5151 23.1204V44.4127ZM49.1722 44.4127C49.1722 45.4642 49.0408 46.4917 48.7779 47.4954C48.539 48.4991 48.1208 49.3952 47.5233 50.1838C46.9259 50.9724 46.1493 51.6177 45.1934 52.1195C44.2375 52.5974 43.0426 52.8364 41.6088 52.8364C40.175 52.8364 38.9682 52.5974 37.9884 52.1195C37.0325 51.6177 36.2559 50.9724 35.6584 50.1838C35.0849 49.3952 34.6667 48.4991 34.4039 47.4954C34.1649 46.4917 34.0454 45.4642 34.0454 44.4127V23.1204C34.0454 22.0689 34.1649 21.0414 34.4039 20.0377C34.6667 19.034 35.0849 18.1379 35.6584 17.3493C36.2559 16.5607 37.0325 15.9274 37.9884 15.4494C38.9682 14.9476 40.175 14.6967 41.6088 14.6967C43.0426 14.6967 44.2375 14.9476 45.1934 15.4494C46.1493 15.9274 46.9259 16.5607 47.5233 17.3493C48.1208 18.1379 48.539 19.034 48.7779 20.0377C49.0408 21.0414 49.1722 22.0689 49.1722 23.1204V44.4127Z" fill="#0561B7"/>
<path d="M55.8037 44.4127C55.8037 45.273 55.8993 46.1213 56.0904 46.9577C56.3055 47.7941 56.6401 48.5469 57.0941 49.216C57.572 49.8612 58.2053 50.387 58.9939 50.7932C59.7825 51.1995 60.7504 51.4026 61.8974 51.4026C63.0684 51.4026 64.0482 51.1995 64.8368 50.7932C65.6254 50.387 66.2467 49.8612 66.7007 49.216C67.1787 48.5469 67.5132 47.7941 67.7044 46.9577C67.8956 46.1213 67.9912 45.273 67.9912 44.4127V23.1204C67.9912 22.284 67.8956 21.4476 67.7044 20.6112C67.5132 19.7748 67.1787 19.034 66.7007 18.3888C66.2467 17.7197 65.6254 17.182 64.8368 16.7757C64.0482 16.3456 63.0684 16.1305 61.8974 16.1305C60.7504 16.1305 59.7825 16.3456 58.9939 16.7757C58.2053 17.182 57.572 17.7197 57.0941 18.3888C56.6401 19.034 56.3055 19.7748 56.0904 20.6112C55.8993 21.4476 55.8037 22.284 55.8037 23.1204V44.4127ZM69.4608 44.4127C69.4608 45.4642 69.3294 46.4917 69.0665 47.4954C68.8276 48.4991 68.4094 49.3952 67.8119 50.1838C67.2145 50.9724 66.4379 51.6177 65.482 52.1195C64.5261 52.5974 63.3312 52.8364 61.8974 52.8364C60.4636 52.8364 59.2568 52.5974 58.277 52.1195C57.3211 51.6177 56.5445 50.9724 55.947 50.1838C55.3735 49.3952 54.9553 48.4991 54.6925 47.4954C54.4535 46.4917 54.334 45.4642 54.334 44.4127V23.1204C54.334 22.0689 54.4535 21.0414 54.6925 20.0377C54.9553 19.034 55.3735 18.1379 55.947 17.3493C56.5445 16.5607 57.3211 15.9274 58.277 15.4494C59.2568 14.9476 60.4636 14.6967 61.8974 14.6967C63.3312 14.6967 64.5261 14.9476 65.482 15.4494C66.4379 15.9274 67.2145 16.5607 67.8119 17.3493C68.4094 18.1379 68.8276 19.034 69.0665 20.0377C69.3294 21.0414 69.4608 22.0689 69.4608 23.1204V44.4127Z" fill="#0561B7"/>
<path d="M74.6226 23.1204C74.6226 22.0689 74.7421 21.0414 74.9811 20.0377C75.22 19.034 75.6263 18.1379 76.1998 17.3493C76.7972 16.5607 77.5739 15.9274 78.5298 15.4494C79.5095 14.9476 80.7283 14.6967 82.186 14.6967C83.6676 14.6967 84.8864 14.9835 85.8423 15.557C86.7981 16.1066 87.6106 16.955 88.2798 18.102V1.61305C88.1364 1.39798 88.0647 1.1829 88.0647 0.967831C88.0647 0.704963 88.1603 0.477941 88.3515 0.286765C88.5426 0.0955882 88.7697 0 89.0325 0C89.2954 0 89.5105 0.0955882 89.6777 0.286765C89.8689 0.477941 89.9645 0.704963 89.9645 0.967831C89.9645 1.1829 89.8928 1.39798 89.7494 1.61305V51.295C89.8928 51.4862 89.9645 51.6893 89.9645 51.9044C89.9645 52.1673 89.8689 52.3824 89.6777 52.5496C89.5105 52.7408 89.2954 52.8364 89.0325 52.8364C88.7697 52.8364 88.5426 52.7408 88.3515 52.5496C88.1603 52.3824 88.0647 52.1673 88.0647 51.9044C88.0647 51.6893 88.1364 51.4862 88.2798 51.295V49.7537C87.6106 50.6857 86.7981 51.4384 85.8423 52.012C84.8864 52.5616 83.6676 52.8364 82.186 52.8364C80.7283 52.8364 79.5095 52.5974 78.5298 52.1195C77.5739 51.6177 76.7972 50.9724 76.1998 50.1838C75.6263 49.3952 75.22 48.4991 74.9811 47.4954C74.7421 46.4917 74.6226 45.4642 74.6226 44.4127V23.1204ZM88.2798 23.1204C88.2798 22.284 88.1483 21.4476 87.8855 20.6112C87.6465 19.7748 87.2761 19.034 86.7743 18.3888C86.2724 17.7197 85.6391 17.182 84.8744 16.7757C84.1097 16.3456 83.2136 16.1305 82.186 16.1305C80.9912 16.1305 79.9994 16.3456 79.2108 16.7757C78.4461 17.182 77.8248 17.7197 77.3469 18.3888C76.8928 19.034 76.5702 19.7748 76.379 20.6112C76.1879 21.4476 76.0923 22.284 76.0923 23.1204V44.4127C76.0923 45.2491 76.1879 46.0855 76.379 46.9219C76.5702 47.7583 76.8928 48.511 77.3469 49.1801C77.8248 49.8493 78.4461 50.387 79.2108 50.7932C79.9994 51.1995 80.9912 51.4026 82.186 51.4026C83.3331 51.4026 84.289 51.1875 85.0537 50.7574C85.8423 50.3272 86.4755 49.7776 86.9535 49.1085C87.4314 48.4393 87.766 47.6985 87.9572 46.886C88.1722 46.0496 88.2798 45.2252 88.2798 44.4127V23.1204Z" fill="#0561B7"/>
<path d="M97.3129 51.295C97.4562 51.4862 97.5279 51.6893 97.5279 51.9044C97.5279 52.1673 97.4323 52.3824 97.2412 52.5496C97.0739 52.7408 96.8588 52.8364 96.5959 52.8364C96.3331 52.8364 96.1061 52.7408 95.9149 52.5496C95.7237 52.3824 95.6281 52.1673 95.6281 51.9044C95.6281 51.6893 95.6998 51.4862 95.8432 51.295V16.3097C95.6998 16.0708 95.6281 15.8438 95.6281 15.6287C95.6281 15.3658 95.7237 15.1507 95.9149 14.9835C96.1061 14.7923 96.3331 14.6967 96.5959 14.6967C96.8588 14.6967 97.0739 14.7923 97.2412 14.9835C97.4323 15.1507 97.5279 15.3658 97.5279 15.6287C97.5279 15.8438 97.4562 16.0708 97.3129 16.3097V51.295ZM97.3129 6.59559C97.4562 6.73897 97.5279 6.93015 97.5279 7.16912C97.5279 7.43199 97.4323 7.65901 97.2412 7.85018C97.0739 8.04136 96.8588 8.13695 96.5959 8.13695C96.3331 8.13695 96.1061 8.04136 95.9149 7.85018C95.7237 7.65901 95.6281 7.43199 95.6281 7.16912C95.6281 6.93015 95.6998 6.73897 95.8432 6.59559V4.4807C95.6998 4.24173 95.6281 4.01471 95.6281 3.79963C95.6281 3.53676 95.7237 3.32169 95.9149 3.15441C96.1061 2.96324 96.3331 2.86765 96.5959 2.86765C96.8588 2.86765 97.0739 2.96324 97.2412 3.15441C97.4323 3.32169 97.5279 3.53676 97.5279 3.79963C97.5279 4.01471 97.4562 4.24173 97.3129 4.4807V6.59559Z" fill="#0561B7"/>
<path d="M107.099 44.1976C107.099 45.0818 107.194 45.9301 107.385 46.7426C107.577 47.5551 107.887 48.284 108.317 48.9292C108.771 49.5745 109.369 50.1002 110.11 50.5064C110.851 50.9127 111.759 51.1278 112.834 51.1517C113.049 51.0083 113.276 50.9366 113.515 50.9366C113.778 50.9366 113.993 51.0322 114.16 51.2233C114.351 51.4145 114.447 51.6415 114.447 51.9044C114.447 52.1673 114.351 52.3824 114.16 52.5496C113.993 52.7408 113.778 52.8364 113.515 52.8364C113.276 52.8364 113.049 52.7647 112.834 52.6213C111.472 52.5735 110.325 52.2987 109.393 51.7969C108.485 51.295 107.744 50.6618 107.17 49.8971C106.621 49.1085 106.226 48.2243 105.987 47.2445C105.749 46.2408 105.629 45.2252 105.629 44.1976V16.8833H102.331C102.188 17.0267 101.997 17.0983 101.758 17.0983C101.495 17.0983 101.268 17.0028 101.077 16.8116C100.885 16.6204 100.79 16.3934 100.79 16.1305C100.79 15.8676 100.885 15.6526 101.077 15.4853C101.268 15.2941 101.495 15.1985 101.758 15.1985C101.997 15.1985 102.188 15.2702 102.331 15.4136H105.629V4.4807C105.486 4.24173 105.414 4.01471 105.414 3.79963C105.414 3.53676 105.51 3.32169 105.701 3.15441C105.892 2.96324 106.119 2.86765 106.382 2.86765C106.645 2.86765 106.872 2.96324 107.063 3.15441C107.254 3.32169 107.35 3.53676 107.35 3.79963C107.35 3.96691 107.266 4.19393 107.099 4.4807V15.4136H112.834C113.049 15.2702 113.276 15.1985 113.515 15.1985C113.778 15.1985 113.993 15.2941 114.16 15.4853C114.351 15.6526 114.447 15.8676 114.447 16.1305C114.447 16.3934 114.351 16.6204 114.16 16.8116C113.993 17.0028 113.778 17.0983 113.515 17.0983C113.276 17.0983 113.049 17.0267 112.834 16.8833H107.099V44.1976Z" fill="#0561B7"/>
</svg>
