<svg width="22" height="31" viewBox="0 0 22 31" fill="none" xmlns="http://www.w3.org/2000/svg">
<path d="M21.453 8.01709L13.9832 0.566971C13.7697 0.354111 13.5563 0.247681 13.2362 0.247681H2.56491C1.39108 0.247681 0.430664 1.20555 0.430664 2.37629V27.9195C0.430664 29.0903 1.39108 30.0481 2.56491 30.0481H19.6389C20.8128 30.0481 21.7732 29.0903 21.7732 27.9195V8.7621C21.7732 8.44281 21.6665 8.22995 21.453 8.01709ZM13.2362 2.80201L19.2121 8.7621H13.2362V2.80201ZM19.6389 27.9195H2.56491V15.1479V2.37629H11.1019V8.7621C11.1019 9.93283 12.0623 10.8907 13.2362 10.8907H19.6389V27.9195Z" fill="#0561B7"/>
<path d="M4.69897 21.5337H17.5045V23.6623H4.69897V21.5337Z" fill="#0561B7"/>
<path d="M4.69897 15.1478H17.5045V17.2764H4.69897V15.1478Z" fill="#0561B7"/>
</svg>
