<svg width="28" height="28" viewBox="0 0 28 28" fill="none" xmlns="http://www.w3.org/2000/svg">
<path d="M26.9741 25.5281L18.3137 16.7246C19.6576 14.9584 20.3846 12.799 20.3846 10.5278C20.3846 7.8091 19.3408 5.2599 17.4533 3.33782C15.5658 1.41574 13.0514 0.358093 10.3803 0.358093C7.70913 0.358093 5.19471 1.41913 3.30724 3.33782C1.41642 5.25651 0.375977 7.8091 0.375977 10.5278C0.375977 13.2431 1.41976 15.7991 3.30724 17.7178C5.19471 19.6399 7.70579 20.6975 10.3803 20.6975C12.6146 20.6975 14.7355 19.9585 16.4729 18.5958L25.1333 27.396C25.1587 27.4218 25.1888 27.4423 25.222 27.4563C25.2552 27.4703 25.2908 27.4775 25.3267 27.4775C25.3626 27.4775 25.3982 27.4703 25.4314 27.4563C25.4646 27.4423 25.4947 27.4218 25.5201 27.396L26.9741 25.9214C26.9995 25.8956 27.0196 25.8649 27.0334 25.8312C27.0471 25.7974 27.0542 25.7613 27.0542 25.7248C27.0542 25.6882 27.0471 25.6521 27.0334 25.6183C27.0196 25.5846 26.9995 25.554 26.9741 25.5281ZM15.6625 15.8974C14.2486 17.3313 12.3745 18.1212 10.3803 18.1212C8.38608 18.1212 6.51194 17.3313 5.098 15.8974C3.6874 14.4601 2.9104 12.555 2.9104 10.5278C2.9104 8.50064 3.6874 6.59213 5.098 5.1582C6.51194 3.72427 8.38608 2.93442 10.3803 2.93442C12.3745 2.93442 14.2519 3.72088 15.6625 5.1582C17.0731 6.59552 17.8501 8.50064 17.8501 10.5278C17.8501 12.555 17.0731 14.4635 15.6625 15.8974Z" fill="#0561B7"/>
</svg>
